<?xml version="1.0" encoding="utf-8"?>

<svg xmlns="http://www.w3.org/2000/svg" xmlns:xlink="http://www.w3.org/1999/xlink" height="360" width="640">
  <title>First Scene</title>
  <desc>
Uni:Sol(http://uni-sol.org) by Revlin John(mailto:revlin@uni-sol.org) is licensed under the Creative Commons Attribution-ShareAlike 3.0 New Zealand License 2013(http://creativecommons.org/licenses/by-sa/3.0/nz/deed.en_GB) and further licesnsed under the Peer Production License(http://p2pfoundation.net/Peer_Production_License).

The first Uni-Sol scene file
</desc>
  <rect id="backdrop" x="0" y="0" width="640" height="360" style="stroke:none;fill:rgb(0, 0, 0)" />
  <path id="simple wave" class="waveline" style="stroke:rgb(127,127,256);stroke-width:2.0;fill:none;stroke-dasharray:2 2;" d="M 0 180 Q 26.6666666666667 0, 53.3333333333333 180 Q 80 360, 106.666666666667 180 Q 133.333333333333 0, 160 180 Q 186.666666666667 360, 213.333333333333 180 Q 240 0, 266.666666666667 180 Q 293.333333333333 360, 320 180 Q 346.666666666667 0, 373.333333333333 180 Q 400 360, 426.666666666667 180 Q 453.333333333333 0, 480 180 Q 506.666666666667 360, 533.333333333333 180 Q 560 0, 586.666666666667 180 Q 613.333333333333 360, 640 180 Q 613.333333333333 210, 586.666666666667 180 Q 560 150, 533.333333333333 180 Q 506.666666666667 210, 480 180 Q 453.333333333333 150, 426.666666666667 180 Q 400 210, 373.333333333333 180 Q 346.666666666667 150, 320 180 Q 293.333333333333 210, 266.666666666667 180 Q 240 150, 213.333333333333 180 Q 186.666666666667 210, 160 180 Q 133.333333333333 150, 106.666666666667 180 Q 80 210, 53.3333333333333 180 Q 26.6666666666667 150, 0 180 " />
</svg>
