<?xml version="1.0"?>
<svg xmlns="http://www.w3.org/2000/svg" xmlns:xlink="http://www.w3.org/1999/xlink" width="640" height="360"><!--This series of slides was produced by the transformation stylesheet: svg-slides.xsl--><!--This is the title of our Catalog--><title>PLANTS!</title><rect x="0" y="0" width="100%" height="100%" fill="#000000"/><text x="320" y="20" text-anchor="middle" font-family="sans-serif" font-size="24" fill="#00FF00">
			PLANTS!
		</text><!--Imported SVG plant drawing as intro--><use xlink:href="bloodroot.svg#path2311" x="0" y="20" stroke="#00FF00"/><defs><g id="slide-1"><rect x="0" y="0" width="620" height="320" fill="#777777"/><image xlink:href="images/plant-bloodroot.png" x="10" y="20" width="300" height="300"/><text x="310" y="60" text-anchor="start" font-family="sans-serif" font-size="14" fill="#FFFFFF"><tspan font-size="2em">Bloodroot</tspan><tspan x="320" dy="30" font-style="italic">Sanguinaria canadensis</tspan><tspan x="320" dy="30">
					Zone 4</tspan></text></g><g id="slide-2"><rect x="0" y="0" width="620" height="320" fill="#777777"/><image xlink:href="images/plant-columbine.png" x="10" y="20" width="300" height="300"/><text x="310" y="60" text-anchor="start" font-family="sans-serif" font-size="14" fill="#FFFFFF"><tspan font-size="2em">Columbine</tspan><tspan x="320" dy="30" font-style="italic">Aquilegia canadensis</tspan><tspan x="320" dy="30">
					Zone 3</tspan></text></g><g id="slide-3"><rect x="0" y="0" width="620" height="320" fill="#777777"/><image xlink:href="images/plant-marsh_marigold.png" x="10" y="20" width="300" height="300"/><text x="310" y="60" text-anchor="start" font-family="sans-serif" font-size="14" fill="#FFFFFF"><tspan font-size="2em">Marsh Marigold</tspan><tspan x="320" dy="30" font-style="italic">Caltha palustris</tspan><tspan x="320" dy="30">
					Zone 4</tspan></text></g><g id="slide-4"><rect x="0" y="0" width="620" height="320" fill="#777777"/><image xlink:href="images/plant-cowslip.png" x="10" y="20" width="300" height="300"/><text x="310" y="60" text-anchor="start" font-family="sans-serif" font-size="14" fill="#FFFFFF"><tspan font-size="2em">Cowslip</tspan><tspan x="320" dy="30" font-style="italic">Caltha palustris</tspan><tspan x="320" dy="30">
					Zone 4</tspan></text></g><g id="slide-5"><rect x="0" y="0" width="620" height="320" fill="#777777"/><image xlink:href="images/plant-dutchman's-breeches.png" x="10" y="20" width="300" height="300"/><text x="310" y="60" text-anchor="start" font-family="sans-serif" font-size="14" fill="#FFFFFF"><tspan font-size="2em">Dutchman's-Breeches</tspan><tspan x="320" dy="30" font-style="italic">Dicentra cucullaria</tspan><tspan x="320" dy="30">
					Zone 3</tspan></text></g><g id="slide-6"><rect x="0" y="0" width="620" height="320" fill="#777777"/><image xlink:href="images/plant-ginger,_wild.png" x="10" y="20" width="300" height="300"/><text x="310" y="60" text-anchor="start" font-family="sans-serif" font-size="14" fill="#FFFFFF"><tspan font-size="2em">Ginger, Wild</tspan><tspan x="320" dy="30" font-style="italic">Asarum canadense</tspan><tspan x="320" dy="30">
					Zone 3</tspan></text></g><g id="slide-7"><rect x="0" y="0" width="620" height="320" fill="#777777"/><image xlink:href="images/plant-hepatica.png" x="10" y="20" width="300" height="300"/><text x="310" y="60" text-anchor="start" font-family="sans-serif" font-size="14" fill="#FFFFFF"><tspan font-size="2em">Hepatica</tspan><tspan x="320" dy="30" font-style="italic">Hepatica americana</tspan><tspan x="320" dy="30">
					Zone 4</tspan></text></g><g id="slide-8"><rect x="0" y="0" width="620" height="320" fill="#777777"/><image xlink:href="images/plant-liverleaf.png" x="10" y="20" width="300" height="300"/><text x="310" y="60" text-anchor="start" font-family="sans-serif" font-size="14" fill="#FFFFFF"><tspan font-size="2em">Liverleaf</tspan><tspan x="320" dy="30" font-style="italic">Hepatica americana</tspan><tspan x="320" dy="30">
					Zone 4</tspan></text></g><g id="slide-9"><rect x="0" y="0" width="620" height="320" fill="#777777"/><image xlink:href="images/plant-jack-in-the-pulpit.png" x="10" y="20" width="300" height="300"/><text x="310" y="60" text-anchor="start" font-family="sans-serif" font-size="14" fill="#FFFFFF"><tspan font-size="2em">Jack-In-The-Pulpit</tspan><tspan x="320" dy="30" font-style="italic">Arisaema triphyllum</tspan><tspan x="320" dy="30">
					Zone 4</tspan></text></g><g id="slide-10"><rect x="0" y="0" width="620" height="320" fill="#777777"/><image xlink:href="images/plant-mayapple.png" x="10" y="20" width="300" height="300"/><text x="310" y="60" text-anchor="start" font-family="sans-serif" font-size="14" fill="#FFFFFF"><tspan font-size="2em">Mayapple</tspan><tspan x="320" dy="30" font-style="italic">Podophyllum peltatum</tspan><tspan x="320" dy="30">
					Zone 3</tspan></text></g><g id="slide-11"><rect x="0" y="0" width="620" height="320" fill="#777777"/><image xlink:href="images/plant-phlox,_woodland.png" x="10" y="20" width="300" height="300"/><text x="310" y="60" text-anchor="start" font-family="sans-serif" font-size="14" fill="#FFFFFF"><tspan font-size="2em">Phlox, Woodland</tspan><tspan x="320" dy="30" font-style="italic">Phlox divaricata</tspan><tspan x="320" dy="30">
					Zone 3</tspan></text></g><g id="slide-12"><rect x="0" y="0" width="620" height="320" fill="#777777"/><image xlink:href="images/plant-phlox,_blue.png" x="10" y="20" width="300" height="300"/><text x="310" y="60" text-anchor="start" font-family="sans-serif" font-size="14" fill="#FFFFFF"><tspan font-size="2em">Phlox, Blue</tspan><tspan x="320" dy="30" font-style="italic">Phlox divaricata</tspan><tspan x="320" dy="30">
					Zone 3</tspan></text></g><g id="slide-13"><rect x="0" y="0" width="620" height="320" fill="#777777"/><image xlink:href="images/plant-spring-beauty.png" x="10" y="20" width="300" height="300"/><text x="310" y="60" text-anchor="start" font-family="sans-serif" font-size="14" fill="#FFFFFF"><tspan font-size="2em">Spring-Beauty</tspan><tspan x="320" dy="30" font-style="italic">Claytonia Virginica</tspan><tspan x="320" dy="30">
					Zone 7</tspan></text></g><g id="slide-14"><rect x="0" y="0" width="620" height="320" fill="#777777"/><image xlink:href="images/plant-trillium.png" x="10" y="20" width="300" height="300"/><text x="310" y="60" text-anchor="start" font-family="sans-serif" font-size="14" fill="#FFFFFF"><tspan font-size="2em">Trillium</tspan><tspan x="320" dy="30" font-style="italic">Trillium grandiflorum</tspan><tspan x="320" dy="30">
					Zone 5</tspan></text></g><g id="slide-15"><rect x="0" y="0" width="620" height="320" fill="#777777"/><image xlink:href="images/plant-wake_robin.png" x="10" y="20" width="300" height="300"/><text x="310" y="60" text-anchor="start" font-family="sans-serif" font-size="14" fill="#FFFFFF"><tspan font-size="2em">Wake Robin</tspan><tspan x="320" dy="30" font-style="italic">Trillium grandiflorum</tspan><tspan x="320" dy="30">
					Zone 5</tspan></text></g><g id="slide-16"><rect x="0" y="0" width="620" height="320" fill="#777777"/><image xlink:href="images/plant-violet,_dog-tooth.png" x="10" y="20" width="300" height="300"/><text x="310" y="60" text-anchor="start" font-family="sans-serif" font-size="14" fill="#FFFFFF"><tspan font-size="2em">Violet, Dog-Tooth</tspan><tspan x="320" dy="30" font-style="italic">Erythronium americanum</tspan><tspan x="320" dy="30">
					Zone 4</tspan></text></g><g id="slide-17"><rect x="0" y="0" width="620" height="320" fill="#777777"/><image xlink:href="images/plant-trout_lily.png" x="10" y="20" width="300" height="300"/><text x="310" y="60" text-anchor="start" font-family="sans-serif" font-size="14" fill="#FFFFFF"><tspan font-size="2em">Trout Lily</tspan><tspan x="320" dy="30" font-style="italic">Erythronium americanum</tspan><tspan x="320" dy="30">
					Zone 4</tspan></text></g><g id="slide-18"><rect x="0" y="0" width="620" height="320" fill="#777777"/><image xlink:href="images/plant-adder's-tongue.png" x="10" y="20" width="300" height="300"/><text x="310" y="60" text-anchor="start" font-family="sans-serif" font-size="14" fill="#FFFFFF"><tspan font-size="2em">Adder's-Tongue</tspan><tspan x="320" dy="30" font-style="italic">Erythronium americanum</tspan><tspan x="320" dy="30">
					Zone 4</tspan></text></g><g id="slide-19"><rect x="0" y="0" width="620" height="320" fill="#777777"/><image xlink:href="images/plant-anemone.png" x="10" y="20" width="300" height="300"/><text x="310" y="60" text-anchor="start" font-family="sans-serif" font-size="14" fill="#FFFFFF"><tspan font-size="2em">Anemone</tspan><tspan x="320" dy="30" font-style="italic">Anemone blanda</tspan><tspan x="320" dy="30">
					Zone 6</tspan></text></g><g id="slide-20"><rect x="0" y="0" width="620" height="320" fill="#777777"/><image xlink:href="images/plant-grecian_windflower.png" x="10" y="20" width="300" height="300"/><text x="310" y="60" text-anchor="start" font-family="sans-serif" font-size="14" fill="#FFFFFF"><tspan font-size="2em">Grecian Windflower</tspan><tspan x="320" dy="30" font-style="italic">Anemone blanda</tspan><tspan x="320" dy="30">
					Zone 6</tspan></text></g><g id="slide-21"><rect x="0" y="0" width="620" height="320" fill="#777777"/><image xlink:href="images/plant-bee_balm.png" x="10" y="20" width="300" height="300"/><text x="310" y="60" text-anchor="start" font-family="sans-serif" font-size="14" fill="#FFFFFF"><tspan font-size="2em">Bee Balm</tspan><tspan x="320" dy="30" font-style="italic">Monarda didyma</tspan><tspan x="320" dy="30">
					Zone 4</tspan></text></g><g id="slide-22"><rect x="0" y="0" width="620" height="320" fill="#777777"/><image xlink:href="images/plant-bergamot.png" x="10" y="20" width="300" height="300"/><text x="310" y="60" text-anchor="start" font-family="sans-serif" font-size="14" fill="#FFFFFF"><tspan font-size="2em">Bergamot</tspan><tspan x="320" dy="30" font-style="italic">Monarda didyma</tspan><tspan x="320" dy="30">
					Zone 4</tspan></text></g><g id="slide-23"><rect x="0" y="0" width="620" height="320" fill="#777777"/><image xlink:href="images/plant-black-eyed_susan.png" x="10" y="20" width="300" height="300"/><text x="310" y="60" text-anchor="start" font-family="sans-serif" font-size="14" fill="#FFFFFF"><tspan font-size="2em">Black-Eyed Susan</tspan><tspan x="320" dy="30" font-style="italic">Rudbeckia hirta</tspan><tspan x="320" dy="30">
					Zone Annual</tspan></text></g><g id="slide-24"><rect x="0" y="0" width="620" height="320" fill="#777777"/><image xlink:href="images/plant-buttercup.png" x="10" y="20" width="300" height="300"/><text x="310" y="60" text-anchor="start" font-family="sans-serif" font-size="14" fill="#FFFFFF"><tspan font-size="2em">Buttercup</tspan><tspan x="320" dy="30" font-style="italic">Ranunculus</tspan><tspan x="320" dy="30">
					Zone 4</tspan></text></g><g id="slide-25"><rect x="0" y="0" width="620" height="320" fill="#777777"/><image xlink:href="images/plant-crowfoot.png" x="10" y="20" width="300" height="300"/><text x="310" y="60" text-anchor="start" font-family="sans-serif" font-size="14" fill="#FFFFFF"><tspan font-size="2em">Crowfoot</tspan><tspan x="320" dy="30" font-style="italic">Ranunculus</tspan><tspan x="320" dy="30">
					Zone 4</tspan></text></g><g id="slide-26"><rect x="0" y="0" width="620" height="320" fill="#777777"/><image xlink:href="images/plant-butterfly_weed.png" x="10" y="20" width="300" height="300"/><text x="310" y="60" text-anchor="start" font-family="sans-serif" font-size="14" fill="#FFFFFF"><tspan font-size="2em">Butterfly Weed</tspan><tspan x="320" dy="30" font-style="italic">Asclepias tuberosa</tspan><tspan x="320" dy="30">
					Zone Annual</tspan></text></g><g id="slide-27"><rect x="0" y="0" width="620" height="320" fill="#777777"/><image xlink:href="images/plant-cinquefoil.png" x="10" y="20" width="300" height="300"/><text x="310" y="60" text-anchor="start" font-family="sans-serif" font-size="14" fill="#FFFFFF"><tspan font-size="2em">Cinquefoil</tspan><tspan x="320" dy="30" font-style="italic">Potentilla</tspan><tspan x="320" dy="30">
					Zone Annual</tspan></text></g><g id="slide-28"><rect x="0" y="0" width="620" height="320" fill="#777777"/><image xlink:href="images/plant-primrose.png" x="10" y="20" width="300" height="300"/><text x="310" y="60" text-anchor="start" font-family="sans-serif" font-size="14" fill="#FFFFFF"><tspan font-size="2em">Primrose</tspan><tspan x="320" dy="30" font-style="italic">Oenothera</tspan><tspan x="320" dy="30">
					Zone 3 - 5</tspan></text></g><g id="slide-29"><rect x="0" y="0" width="620" height="320" fill="#777777"/><image xlink:href="images/plant-gentian.png" x="10" y="20" width="300" height="300"/><text x="310" y="60" text-anchor="start" font-family="sans-serif" font-size="14" fill="#FFFFFF"><tspan font-size="2em">Gentian</tspan><tspan x="320" dy="30" font-style="italic">Gentiana</tspan><tspan x="320" dy="30">
					Zone 4</tspan></text></g><g id="slide-30"><rect x="0" y="0" width="620" height="320" fill="#777777"/><image xlink:href="images/plant-blue_gentian.png" x="10" y="20" width="300" height="300"/><text x="310" y="60" text-anchor="start" font-family="sans-serif" font-size="14" fill="#FFFFFF"><tspan font-size="2em">Blue Gentian</tspan><tspan x="320" dy="30" font-style="italic">Gentiana</tspan><tspan x="320" dy="30">
					Zone 4</tspan></text></g><g id="slide-31"><rect x="0" y="0" width="620" height="320" fill="#777777"/><image xlink:href="images/plant-jacob's_ladder.png" x="10" y="20" width="300" height="300"/><text x="310" y="60" text-anchor="start" font-family="sans-serif" font-size="14" fill="#FFFFFF"><tspan font-size="2em">Jacob's Ladder</tspan><tspan x="320" dy="30" font-style="italic">Polemonium caeruleum</tspan><tspan x="320" dy="30">
					Zone Annual</tspan></text></g><g id="slide-32"><rect x="0" y="0" width="620" height="320" fill="#777777"/><image xlink:href="images/plant-greek_valerian.png" x="10" y="20" width="300" height="300"/><text x="310" y="60" text-anchor="start" font-family="sans-serif" font-size="14" fill="#FFFFFF"><tspan font-size="2em">Greek Valerian</tspan><tspan x="320" dy="30" font-style="italic">Polemonium caeruleum</tspan><tspan x="320" dy="30">
					Zone Annual</tspan></text></g><g id="slide-33"><rect x="0" y="0" width="620" height="320" fill="#777777"/><image xlink:href="images/plant-california_poppy.png" x="10" y="20" width="300" height="300"/><text x="310" y="60" text-anchor="start" font-family="sans-serif" font-size="14" fill="#FFFFFF"><tspan font-size="2em">California Poppy</tspan><tspan x="320" dy="30" font-style="italic">Eschscholzia californica</tspan><tspan x="320" dy="30">
					Zone Annual</tspan></text></g><g id="slide-34"><rect x="0" y="0" width="620" height="320" fill="#777777"/><image xlink:href="images/plant-shooting_star.png" x="10" y="20" width="300" height="300"/><text x="310" y="60" text-anchor="start" font-family="sans-serif" font-size="14" fill="#FFFFFF"><tspan font-size="2em">Shooting Star</tspan><tspan x="320" dy="30" font-style="italic">Dodecatheon</tspan><tspan x="320" dy="30">
					Zone Annual</tspan></text></g><g id="slide-35"><rect x="0" y="0" width="620" height="320" fill="#777777"/><image xlink:href="images/plant-snakeroot.png" x="10" y="20" width="300" height="300"/><text x="310" y="60" text-anchor="start" font-family="sans-serif" font-size="14" fill="#FFFFFF"><tspan font-size="2em">Snakeroot</tspan><tspan x="320" dy="30" font-style="italic">Cimicifuga</tspan><tspan x="320" dy="30">
					Zone Annual</tspan></text></g><g id="slide-36"><rect x="0" y="0" width="620" height="320" fill="#777777"/><image xlink:href="images/plant-cardinal_flower.png" x="10" y="20" width="300" height="300"/><text x="310" y="60" text-anchor="start" font-family="sans-serif" font-size="14" fill="#FFFFFF"><tspan font-size="2em">Cardinal Flower</tspan><tspan x="320" dy="30" font-style="italic">Lobelia cardinalis</tspan><tspan x="320" dy="30">
					Zone 2</tspan></text></g></defs><use id="slide-display" xlink:href="#slide-1" x="10" y="20" onclick="changeSlide(document.getElementById('slide-display'));"/><script type="text/ecmascript" xlink:href="scripts/slides.js"/></svg>
